<svg id="Layer_1" data-name="Layer 1" xmlns="http://www.w3.org/2000/svg" viewBox="0 0 120.24 121.45"><defs><style>.cls-1{fill:#e2cfc3;}</style></defs><title>customization</title><path class="cls-1" d="M63.44,124.78c-33.15,0-60.12-27.24-60.12-60.72s27-60.73,60.12-60.73,60.12,27.24,60.12,60.73S96.59,124.78,63.44,124.78Zm0-118.21C32.05,6.56,6.52,32.36,6.52,64.06s25.54,57.49,56.92,57.49,56.92-25.79,56.92-57.49S94.82,6.56,63.44,6.56Z" transform="translate(-3.32 -3.33)"/><path class="cls-1" d="M97,51.74a2.35,2.35,0,0,1-2.32,2.35H34.26a2.35,2.35,0,0,1-2.32-2.35V42.36A2.35,2.35,0,0,1,34.26,40H94.65A2.35,2.35,0,0,1,97,42.36v9.38Zm0,18.77a2.35,2.35,0,0,1-2.32,2.35H34.26a2.35,2.35,0,0,1-2.32-2.35V61.13a2.35,2.35,0,0,1,2.32-2.35H94.65A2.35,2.35,0,0,1,97,61.13v9.38Zm0,18.77a2.35,2.35,0,0,1-2.32,2.35H34.26a2.35,2.35,0,0,1-2.32-2.35V79.9a2.35,2.35,0,0,1,2.32-2.35H94.65A2.35,2.35,0,0,1,97,79.9v9.38ZM92.32,68.17V63.48H55.16v4.69H92.32Zm0,18.77V82.24H69.1v4.69H92.32Zm0-37.54V44.71H78.39V49.4H92.32Z" transform="translate(-3.32 -3.33)"/></svg>